<svg width="280" height="88" viewBox="0 0 280 88" fill="none" xmlns="http://www.w3.org/2000/svg">
<path d="M243.096 79.835C235.627 80.6796 229.874 79.2813 225.837 75.6401C221.87 71.9123 219.411 65.8469 218.461 57.4438L214.634 23.5983L235.408 21.2493L239.301 55.6784C239.934 61.2804 242.663 63.8087 247.487 63.2632C250.288 62.9465 252.469 61.6755 254.03 59.4502C255.59 57.2249 256.182 54.4394 255.803 51.0937L252.214 19.3489L272.988 16.9999L279.481 74.4207L259.173 76.7169L258.368 69.5977C255.267 75.622 250.176 79.0344 243.096 79.835Z" fill="black"/>
<path d="M154.634 85.0166L157.278 27.2905L177.576 28.2203L177.216 36.0814C179.386 33.2022 182.11 31.0538 185.389 29.6363C188.667 28.2189 192.301 27.6015 196.29 27.7842C203.174 28.0995 208.165 30.3661 211.264 34.584C214.441 38.8055 215.836 45.1401 215.449 53.5879L213.885 87.7308L193 86.7741L194.527 53.4525C194.688 49.9326 194.177 47.4009 192.993 45.8574C191.888 44.3175 190.162 43.4938 187.816 43.3863C184.687 43.243 182.137 44.1452 180.167 46.0929C178.2 47.9624 177.14 50.5789 176.985 53.9423L175.518 85.9733L154.634 85.0166Z" fill="black"/>
<path d="M118.025 76.9407C113.575 77.2952 109.568 76.7896 106.003 75.4241C102.516 74.0523 99.6854 72.0392 97.5102 69.3847C95.4068 66.6459 94.209 63.4422 93.9167 59.7736C93.5872 55.6368 94.4188 52.2714 96.4115 49.6776C98.3981 47.0058 101.771 44.9697 106.529 43.5695C111.281 42.0912 117.677 41.0318 125.717 40.3914L130.166 40.0369L130.036 38.3978C129.812 35.5878 128.912 33.6565 127.335 32.6038C125.837 31.545 123.332 31.1554 119.819 31.4352C116.853 31.6715 113.612 32.401 110.096 33.6237C106.58 34.8464 103.183 36.5702 99.9041 38.7952L93.5441 25.5163C95.3836 23.9559 97.7818 22.5081 100.739 21.1728C103.696 19.8375 106.831 18.763 110.144 17.9492C113.45 17.0574 116.587 16.4934 119.553 16.2571C129.153 15.4923 136.421 16.9948 141.356 20.7649C146.369 24.5287 149.23 30.8597 149.938 39.7579L152.578 72.892L133.143 74.4403L132.49 66.2446C131.711 69.2915 130.063 71.7792 127.546 73.7078C125.023 75.5584 121.849 76.636 118.025 76.9407ZM121.626 62.9862C124.514 62.7561 126.859 61.6267 128.661 59.5979C130.541 57.5629 131.36 55.0234 131.118 51.9793L130.95 49.8718L126.501 50.2262C121.895 50.5931 118.54 51.3709 116.436 52.5598C114.403 53.6643 113.47 55.2703 113.638 57.3778C113.781 59.173 114.524 60.6063 115.866 61.6776C117.286 62.7428 119.206 63.1789 121.626 62.9862Z" fill="black"/>
<path d="M0.902172 83.1161L3.79199 0.362427L21.7513 0.989579L46.506 49.3338L74.5728 2.83415L92.0625 3.4449L89.1727 86.1985L69.6875 85.5181L71.2574 40.5612L51.2154 72.6505L39.4773 72.2406L21.941 39.3091L20.3874 83.7965L0.902172 83.1161Z" fill="black"/>
</svg>
